inDegrees=yes
name=ik_S53_A06_T02
DataType=double
version=3
OpenSimVersion=4.3-2021-08-27-4bc7ad9
endheader
time	pelvis_tilt	pelvis_list	pelvis_rotation	pelvis_tx	pelvis_ty	pelvis_tz	hip_flexion_r	hip_adduction_r	hip_rotation_r	knee_angle_r	knee_angle_r_beta	ankle_angle_r	subtalar_angle_r	mtp_angle_r	hip_flexion_l	hip_adduction_l	hip_rotation_l	knee_angle_l	knee_angle_l_beta	ankle_angle_l	subtalar_angle_l	mtp_angle_l	lumbar_extension	lumbar_bending	lumbar_rotation	arm_flex_r	arm_add_r	arm_rot_r	elbow_flex_r	pro_sup_r	wrist_flex_r	wrist_dev_r	arm_flex_l	arm_add_l	arm_rot_l	elbow_flex_l	pro_sup_l	wrist_flex_l	wrist_dev_l
9.316666666666709	-6.958619028086789	-3.363368876379644	23.88272273293863	0	0.9399999999999999	0	45.54115177547247	-10.03375548061176	-10.3225214958413	54.37357596333048	0.9489979266433645	0	0	0	45.54115177547247	-10.03375548061176	-10.3225214958413	54.37357596333048	0.9489979266433645	0	0	0	-4.492920196676291	0.2646945598765597	4.262257534049803	38.91471359411494	-9.242600411190036	0.7487746263165208	49.56213899763076	143.8715411071527	0	0	74.45164431083542	-2.478858401457621	15.29945901598856	26.47888313864853	70.01144101502048	0	0
9.333333333333377	-6.999804604514181	-3.349622494627206	23.77801220571819	0	0.9399999999999999	0	45.54094893330416	-10.03371132579931	-10.32225079225394	54.37373334846365	0.9490006735321318	0	0	0	45.54094893330416	-10.03371132579931	-10.32225079225394	54.37373334846365	0.9490006735321318	0	0	0	-4.52794686649584	0.2975069665594583	4.226879604603167	39.11826548640396	-9.161258289520431	0.9319891084026655	49.43561437824059	143.8771766806685	0	0	74.43837349377038	-2.468856242267635	15.24960686856778	26.54819065739566	70.08606593886549	0	0
9.350000000000044	-7.008228993847175	-3.360255892962023	23.71628305446016	0	0.9399999999999999	0	45.54083923389508	-10.03368750824832	-10.32210462655839	54.37381862253009	0.9490021618453578	0	0	0	45.54083923389508	-10.03368750824832	-10.32210462655839	54.37381862253009	0.9490021618453578	0	0	0	-4.537937914233117	0.2863926170176857	4.272234085933281	39.15423318234215	-9.149669955573525	0.9474562763019926	49.42312104215345	143.8556517754897	0	0	74.27141416963511	-2.151536388056988	15.44101501759693	26.71575503673826	70.3494768158295	0	0
9.366666666666712	-7.017376998810809	-3.345665061629053	23.66796815289876	0	0.9399999999999999	0	45.54080105760118	-10.03367949371621	-10.32205487329756	54.37384922160331	0.9490026958999336	0	0	0	45.54080105760118	-10.03367949371621	-10.32205487329756	54.37384922160331	0.9490026958999336	0	0	0	-4.540655728689463	0.3033900509542818	4.273596019619843	39.19934992865015	-9.06356926667336	1.037110696926586	49.41392537408865	143.8695540651913	0	0	74.22331931072611	-2.05517718440224	15.48146003016416	26.74411193516597	70.39484943555318	0	0
9.383333333333379	-7.044678362367993	-3.335955592909083	23.54560701020963	0	0.9399999999999999	0	45.54065730776423	-10.03364826418348	-10.32186323828309	54.37396083574755	0.9490046439342424	0	0	0	45.54065730776423	-10.03364826418348	-10.32186323828309	54.37396083574755	0.9490046439342424	0	0	0	-4.564066356753694	0.3262103178523274	4.244530925645142	39.37641157998269	-8.948049963489895	1.205014030591324	49.25612656660554	143.895159434537	0	0	74.10296454511017	-1.958100758678275	15.48036351505682	26.85751452635633	70.58131037501431	0	0
9.400000000000047	-7.080502070461482	-3.320921986543894	23.40884059081793	0	0.9399999999999999	0	45.54046019552707	-10.0336054325146	-10.32160038905155	54.37411374113711	0.9490073126367342	0	0	0	45.54046019552707	-10.0336054325146	-10.32160038905155	54.37411374113711	0.9490073126367342	0	0	0	-4.593949413221623	0.3580001644721125	4.207516409936022	39.55025144504849	-8.844316900882724	1.468211824505507	49.15296015876913	143.8324663022193	0	0	74.01875796032682	-1.853003819446994	15.48026578714568	26.93050605155262	70.63836280306599	0	0
9.416666666666714	-7.118443678756399	-3.311989031341406	23.27169016090878	0	0.9399999999999999	0	45.54032101493417	-10.03357526181755	-10.32141506788957	54.37422189739972	0.9490092003196234	0	0	0	45.54032101493417	-10.03357526181755	-10.32141506788957	54.37422189739972	0.9490092003196234	0	0	0	-4.628160396440895	0.3855109484328273	4.166475506720394	39.7510400219507	-8.745710542446659	1.695848130762261	49.02165827864507	143.8289860303873	0	0	73.94382487620376	-1.773010965475862	15.49528645762688	26.96852351337937	70.70737604920572	0	0
9.433333333333382	-7.155630942229208	-3.297312313715054	23.13189737741025	0	0.9399999999999999	0	45.5401728738436	-10.03354315946103	-10.32121783667324	54.37433698784567	0.9490112090268428	0	0	0	45.5401728738436	-10.03354315946103	-10.32121783667324	54.37433698784567	0.9490112090268428	0	0	0	-4.659635222483689	0.4181456592722422	4.123668387550713	39.93544454082331	-8.645716011337733	1.914284490004293	48.91217927639229	143.8840327094128	0	0	73.86554347928576	-1.685266834426377	15.48738377093008	26.95759133446137	70.79989668030156	0	0
9.450000000000049	-7.181878857024841	-3.287701170734756	23.00830297734541	0	0.9399999999999999	0	45.53898184867552	-10.03334445451507	-10.31987917223346	54.37548564376974	0.9490312568546904	0	0	0	45.53898184867552	-10.03334445451507	-10.31987917223346	54.37548564376974	0.9490312568546904	0	0	0	-4.682610092708918	0.4295790857245653	4.151476108169089	39.98685939245118	-8.618436119477353	2.014426133945187	48.92534127342702	143.8867635386853	0	0	75.00368223013902	1.019349805350683	16.05864689411392	24.60963339751892	71.00055119343365	0	0
9.466666666666717	-7.215931612764317	-3.27403216895377	22.88328486347087	0	0.9399999999999999	0	45.53882720853158	-10.0333110390723	-10.31967354787338	54.37560565602619	0.9490333514637083	0	0	0	45.53882720853158	-10.0333110390723	-10.31967354787338	54.37560565602619	0.9490333514637083	0	0	0	-4.711603644209378	0.4597176550088178	4.110829812787607	40.11378970693466	-8.533091672472743	2.142930763246907	48.86153292048632	143.9307626685458	0	0	74.92554262721548	1.107113628153323	16.03835150598844	24.52846579619284	71.20826098347985	0	0
9.483333333333384	-7.251584238213478	-3.263029242336065	22.79050790046403	0	0.9399999999999999	0	45.53869095317579	-10.0332816505277	-10.31949257233603	54.37571153147191	0.9490351993388331	0	0	0	45.53869095317579	-10.0332816505277	-10.31949257233603	54.37571153147191	0.9490351993388331	0	0	0	-4.742993492944189	0.4878135959484511	4.071416129516813	40.22566808546549	-8.471654051271845	2.221359441245838	48.82433608120061	143.9933654013316	0	0	74.92415355265747	1.101044460346094	15.97985197778402	24.4634828629748	71.35443464814077	0	0
9.500000000000052	-7.277098301432305	-3.246859164636388	22.61168459824297	0	0.9399999999999999	0	45.53851779393579	-10.03324426493127	-10.31926239641477	54.3758458632312	0.9490375438703227	0	0	0	45.53851779393579	-10.03324426493127	-10.31926239641477	54.3758458632312	0.9490375438703227	0	0	0	-4.759572556777706	0.5091126533153463	4.103144938519846	40.29843419493748	-8.407810089031077	2.347740958372043	48.78920647749506	144.0096752149649	0	0	75.12759039264006	1.880730855573945	16.07452002258488	23.68985555284894	71.70758781243724	0	0
9.516666666666719	-7.284016985075395	-3.244727325716033	22.54250994996634	0	0.9399999999999999	0	45.53837818124453	-10.03321419224437	-10.31907707802708	54.37595434844562	0.9490394372945041	0	0	0	45.53837818124453	-10.03321419224437	-10.31907707802708	54.37595434844562	0.9490394372945041	0	0	0	-4.762566801869756	0.5072268458012923	4.164126782523263	40.31689262155596	-8.415216778168602	2.370145698386942	48.77588643176153	143.993796020318	0	0	75.13388718668973	2.406858712446807	16.30126812059459	23.28910085569966	71.88336255603194	0	0
9.533333333333387	-7.342716758620957	-3.225386919382018	22.41631447829515	0	0.9399999999999999	0	45.53817110074045	-10.0331695381415	-10.31880196777849	54.37611498475275	0.9490422409269617	0	0	0	45.53817110074045	-10.0331695381415	-10.31880196777849	54.37611498475275	0.9490422409269617	0	0	0	-4.8096222341827	0.5458559707062252	4.180833506890719	40.39912812241066	-8.338576198226749	2.516050040688601	48.82071397813539	144.0360512793018	0	0	75.23695063538113	2.866649005620162	16.4412125894791	22.87262109643591	72.05902654136864	0	0
9.550000000000054	-7.372711851916522	-3.217725649767005	22.28330758152065	0	0.9399999999999999	0	45.53801226802841	-10.03313535291125	-10.3185911925994	54.37623833477429	0.9490443937909701	0	0	0	45.53801226802841	-10.03313535291125	-10.3185911925994	54.37623833477429	0.9490443937909701	0	0	0	-4.835295166102728	0.5643745753069611	4.180088478330392	40.48576660120366	-8.25129779892319	2.655313776971527	48.78472996432232	144.0438800956507	0	0	75.3159859043292	3.253958272586213	16.59451287728399	22.4264615908894	72.19468162313905	0	0
9.566666666666721	-7.417410539048959	-3.198830657031245	22.19881563866675	0	0.9399999999999999	0	45.53783793182468	-10.03309793997622	-10.31836025933305	54.37637400982366	0.9490467617672942	0	0	0	45.53783793182468	-10.03309793997622	-10.31836025933305	54.37637400982366	0.9490467617672942	0	0	0	-4.871540030431553	0.6008387895339072	4.160915175555677	40.59025249983083	-8.217655620738906	2.824486260506111	48.76396306289769	144.0396497437527	0	0	75.28733456036518	3.364246215679558	16.53912418698911	22.25418753189392	72.44380868024426	0	0
